<?xml version="1.0" encoding="UTF-8" standalone="no"?>
<!DOCTYPE svg PUBLIC "-//W3C//DTD SVG 1.0//EN" "http://www.w3.org/TR/2001/PR-SVG-20010719/DTD/svg10.dtd">
<svg width="46cm" height="42cm" viewBox="296 -1 905 822" xmlns="http://www.w3.org/2000/svg" xmlns:xlink="http://www.w3.org/1999/xlink">
  <g>
    <ellipse style="fill: #ffffff" cx="449.97" cy="153.858" rx="81.8" ry="32"/>
    <ellipse style="fill: none; fill-opacity:0; stroke-width: 2; stroke: #000000" cx="449.97" cy="153.858" rx="81.8" ry="32"/>
    <text font-size="12.8" style="fill: #000000;text-anchor:middle;font-family:sans-serif;font-style:normal;font-weight:normal" x="449.97" y="149.758">
      <tspan x="449.97" y="149.758">Enter movie </tspan>
      <tspan x="449.97" y="165.758">title</tspan>
    </text>
  </g>
  <line style="fill: none; fill-opacity:0; stroke-width: 2; stroke-dasharray: 20; stroke: #000000" x1="600" y1="0" x2="600" y2="820"/>
  <text font-size="14.6756" style="fill: #000000;text-anchor:middle;font-family:sans-serif;font-style:normal;font-weight:normal" x="750.046" y="36.2978">
    <tspan x="750.046" y="36.2978">System</tspan>
  </text>
  <text font-size="14.6756" style="fill: #000000;text-anchor:middle;font-family:sans-serif;font-style:normal;font-weight:normal" x="1049.56" y="36.584">
    <tspan x="1049.56" y="36.584">Foreign API</tspan>
  </text>
  <ellipse style="fill: #000000" cx="450.238" cy="68.323" rx="10" ry="10"/>
  <line style="fill: none; fill-opacity:0; stroke-width: 2; stroke-dasharray: 20; stroke: #000000" x1="900" y1="0" x2="900" y2="820"/>
  <text font-size="14.6756" style="fill: #000000;text-anchor:middle;font-family:sans-serif;font-style:normal;font-weight:normal" x="450.458" y="36.7132">
    <tspan x="450.458" y="36.7132">User</tspan>
  </text>
  <g>
    <polyline style="fill: none; fill-opacity:0; stroke-width: 2; stroke: #000000" points="450.238,79.3284 450.238,100.089 449.97,100.089 449.97,116.378 "/>
    <polyline style="fill: none; fill-opacity:0; stroke-width: 2; stroke: #000000" points="444.97,108.614 449.97,118.614 454.97,108.614 "/>
  </g>
  <g>
    <ellipse style="fill: #ffffff" cx="750.137" cy="251.2" rx="134.375" ry="44.7917"/>
    <ellipse style="fill: none; fill-opacity:0; stroke-width: 2; stroke: #000000" cx="750.137" cy="251.2" rx="134.375" ry="44.7917"/>
    <text font-size="12.8" style="fill: #000000;text-anchor:middle;font-family:sans-serif;font-style:normal;font-weight:normal" x="750.137" y="247.1">
      <tspan x="750.137" y="247.1">Check if the movie title</tspan>
      <tspan x="750.137" y="263.1">has been requested earlier</tspan>
    </text>
  </g>
  <g>
    <ellipse style="fill: #ffffff" cx="449.946" cy="251.153" rx="63.65" ry="21.2167"/>
    <ellipse style="fill: none; fill-opacity:0; stroke-width: 2; stroke: #000000" cx="449.946" cy="251.153" rx="63.65" ry="21.2167"/>
    <text font-size="12.8" style="fill: #000000;text-anchor:middle;font-family:sans-serif;font-style:normal;font-weight:normal" x="449.946" y="255.053">
      <tspan x="449.946" y="255.053">Submit form</tspan>
    </text>
  </g>
  <g>
    <polyline style="fill: none; fill-opacity:0; stroke-width: 2; stroke: #000000" points="449.97,186.866 449.97,207.899 449.946,207.899 449.946,224.458 "/>
    <polyline style="fill: none; fill-opacity:0; stroke-width: 2; stroke: #000000" points="444.946,216.695 449.946,226.695 454.946,216.695 "/>
  </g>
  <g>
    <polyline style="fill: none; fill-opacity:0; stroke-width: 2; stroke: #000000" points="514.604,251.153 564.679,251.153 564.679,251.2 610.282,251.2 "/>
    <polyline style="fill: none; fill-opacity:0; stroke-width: 2; stroke: #000000" points="602.518,256.2 612.518,251.2 602.518,246.2 "/>
  </g>
  <g>
    <polygon style="fill: #ffffff" points="730.01,359.788 750.01,339.788 770.01,359.788 750.01,379.788 "/>
    <polygon style="fill: none; fill-opacity:0; stroke-width: 2; stroke: #000000" points="730.01,359.788 750.01,339.788 770.01,359.788 750.01,379.788 "/>
  </g>
  <g>
    <polyline style="fill: none; fill-opacity:0; stroke-width: 2; stroke: #000000" points="750.137,295.991 750.137,317.89 750.01,317.89 750.01,335.316 "/>
    <polyline style="fill: none; fill-opacity:0; stroke-width: 2; stroke: #000000" points="745.01,327.552 750.01,337.552 755.01,327.552 "/>
  </g>
  <g>
    <ellipse style="fill: #ffffff" cx="1050.12" cy="359.984" rx="126.2" ry="48"/>
    <ellipse style="fill: none; fill-opacity:0; stroke-width: 2; stroke: #000000" cx="1050.12" cy="359.984" rx="126.2" ry="48"/>
    <text font-size="12.8" style="fill: #000000;text-anchor:middle;font-family:sans-serif;font-style:normal;font-weight:normal" x="1050.12" y="347.884">
      <tspan x="1050.12" y="347.884">Request a list of all </tspan>
      <tspan x="1050.12" y="363.884">soundtracks for </tspan>
      <tspan x="1050.12" y="379.884">the movie</tspan>
    </text>
  </g>
  <g>
    <ellipse style="fill: #ffffff" cx="749.984" cy="696.979" rx="101.9" ry="33.9667"/>
    <ellipse style="fill: none; fill-opacity:0; stroke-width: 2; stroke: #000000" cx="749.984" cy="696.979" rx="101.9" ry="33.9667"/>
    <text font-size="12.8" style="fill: #000000;text-anchor:middle;font-family:sans-serif;font-style:normal;font-weight:normal" x="749.984" y="692.879">
      <tspan x="749.984" y="692.879">Create the result</tspan>
      <tspan x="749.984" y="708.879">response</tspan>
    </text>
  </g>
  <g>
    <ellipse style="fill: #ffffff" cx="450.624" cy="697.094" rx="91.95" ry="30.65"/>
    <ellipse style="fill: none; fill-opacity:0; stroke-width: 2; stroke: #000000" cx="450.624" cy="697.094" rx="91.95" ry="30.65"/>
    <text font-size="12.8" style="fill: #000000;text-anchor:middle;font-family:sans-serif;font-style:normal;font-weight:normal" x="450.624" y="700.994">
      <tspan x="450.624" y="700.994">Show the result page</tspan>
    </text>
  </g>
  <g>
    <polyline style="fill: none; fill-opacity:0; stroke-width: 2; stroke: #000000" points="647.078,696.979 595.329,696.979 595.329,697.094 548.052,697.094 "/>
    <polyline style="fill: none; fill-opacity:0; stroke-width: 2; stroke: #000000" points="555.816,692.094 545.816,697.094 555.816,702.094 "/>
  </g>
  <g>
    <ellipse style="fill: #ffffff" cx="749.901" cy="498.069" rx="115.875" ry="38.625"/>
    <ellipse style="fill: none; fill-opacity:0; stroke-width: 2; stroke: #000000" cx="749.901" cy="498.069" rx="115.875" ry="38.625"/>
    <text font-size="12.8" style="fill: #000000;text-anchor:middle;font-family:sans-serif;font-style:normal;font-weight:normal" x="749.901" y="501.969">
      <tspan x="749.901" y="501.969">Save the list in our database</tspan>
    </text>
  </g>
  <g>
    <polygon style="fill: #ffffff" points="729.97,601.37 749.97,581.37 769.97,601.37 749.97,621.37 "/>
    <polygon style="fill: none; fill-opacity:0; stroke-width: 2; stroke: #000000" points="729.97,601.37 749.97,581.37 769.97,601.37 749.97,621.37 "/>
  </g>
  <g>
    <polyline style="fill: none; fill-opacity:0; stroke-width: 2; stroke: #000000" points="749.901,536.694 749.901,559.032 749.97,559.032 749.97,576.898 "/>
    <polyline style="fill: none; fill-opacity:0; stroke-width: 2; stroke: #000000" points="744.97,569.134 749.97,579.134 754.97,569.134 "/>
  </g>
  <g>
    <polyline style="fill: none; fill-opacity:0; stroke-width: 2; stroke: #000000" points="750.01,379.788 750.01,443.564 629.146,443.564 629.146,601.37 725.498,601.37 "/>
    <polyline style="fill: none; fill-opacity:0; stroke-width: 2; stroke: #000000" points="717.734,606.37 727.734,601.37 717.734,596.37 "/>
    <text font-size="12.7998" style="fill: #000000;text-anchor:middle;font-family:sans-serif;font-style:normal;font-weight:normal" x="665.108" y="437.548">[It was requested earlier]</text>
  </g>
  <g>
    <polyline style="fill: none; fill-opacity:0; stroke-width: 2; stroke: #000000" points="749.97,621.37 749.97,642.191 749.984,642.191 749.984,658.54 "/>
    <polyline style="fill: none; fill-opacity:0; stroke-width: 2; stroke: #000000" points="744.984,650.776 749.984,660.776 754.984,650.776 "/>
  </g>
  <g>
    <polyline style="fill: none; fill-opacity:0; stroke-width: 2; stroke: #000000" points="770.01,359.788 884.488,359.788 884.488,359.984 918.471,359.984 "/>
    <polyline style="fill: none; fill-opacity:0; stroke-width: 2; stroke: #000000" points="910.707,364.984 920.707,359.984 910.707,354.984 "/>
    <text font-size="12.7998" style="fill: #000000;text-anchor:middle;font-family:sans-serif;font-style:normal;font-weight:normal" x="831.998" y="350.888">[First request]</text>
  </g>
  <ellipse style="fill: #000000" cx="450.378" cy="780.782" rx="10" ry="10"/>
  <g>
    <polyline style="fill: none; fill-opacity:0; stroke-width: 2; stroke: #000000" points="450.624,727.744 450.624,748.76 450.378,748.76 450.378,765.304 "/>
    <polyline style="fill: none; fill-opacity:0; stroke-width: 2; stroke: #000000" points="445.378,757.541 450.378,767.541 455.378,757.541 "/>
  </g>
  <polyline style="fill: none; fill-opacity:0; stroke-width: 2; stroke-dasharray: 20; stroke: #000000" points="297.572,1.34164 298.844,1.34164 "/>
  <line style="fill: none; fill-opacity:0; stroke-width: 2; stroke: #000000" x1="1200" y1="0" x2="300" y2="0"/>
  <line style="fill: none; fill-opacity:0; stroke-width: 2; stroke: #000000" x1="300" y1="820" x2="300" y2="0"/>
  <line style="fill: none; fill-opacity:0; stroke-width: 2; stroke: #000000" x1="1200" y1="820" x2="1200" y2="0"/>
  <line style="fill: none; fill-opacity:0; stroke-width: 2; stroke: #000000" x1="1200" y1="820" x2="300" y2="820"/>
  <g>
    <polygon style="fill: #ffffff" points="1030.3,472.682 1050.3,452.682 1070.3,472.682 1050.3,492.682 "/>
    <polygon style="fill: none; fill-opacity:0; stroke-width: 2; stroke: #000000" points="1030.3,472.682 1050.3,452.682 1070.3,472.682 1050.3,492.682 "/>
  </g>
  <g>
    <polyline style="fill: none; fill-opacity:0; stroke-width: 2; stroke: #000000" points="1050.12,407.984 1050.12,430.333 1050.3,430.333 1050.3,448.21 "/>
    <polyline style="fill: none; fill-opacity:0; stroke-width: 2; stroke: #000000" points="1045.3,440.446 1050.3,450.446 1055.3,440.446 "/>
  </g>
  <g>
    <polyline style="fill: none; fill-opacity:0; stroke-width: 2; stroke: #000000" points="1030.3,472.682 955.028,472.682 955.028,498.07 870.248,498.07 "/>
    <polyline style="fill: none; fill-opacity:0; stroke-width: 2; stroke: #000000" points="878.012,493.07 868.012,498.07 878.012,503.07 "/>
    <text font-size="12.7998" style="fill: #000000;text-anchor:middle;font-family:sans-serif;font-style:normal;font-weight:normal" x="957.104" y="515.628">[Response includes the list]</text>
  </g>
  <g>
    <polyline style="fill: none; fill-opacity:0; stroke-width: 2; stroke: #000000" points="1050.3,492.682 1050.3,696.979 856.356,696.979 "/>
    <polyline style="fill: none; fill-opacity:0; stroke-width: 2; stroke: #000000" points="864.12,691.979 854.12,696.979 864.12,701.979 "/>
    <text font-size="12.7998" style="fill: #000000;text-anchor:middle;font-family:sans-serif;font-style:normal;font-weight:normal" x="976.356" y="713.5">[No soundtracks found]</text>
  </g>
</svg>
